<?xml version="1.0"?>
<!-- Generated by SVGo (float) -->
<svg width="689.00" height="106.00"
     xmlns="http://www.w3.org/2000/svg"
     xmlns:xlink="http://www.w3.org/1999/xlink">
<text x="0.00" y="5.50" style="font-size: 10px;alignment-baseline: central; fill: #aaa;" >Jan</text>
<rect x="0.00" y="82.00" width="11.00" height="11.00" rx="2.00" ry="2.00" style="fill:#ffffbf" />
<rect x="0.00" y="95.00" width="11.00" height="11.00" rx="2.00" ry="2.00" style="fill:#ffffbf" />
<rect x="13.00" y="17.00" width="11.00" height="11.00" rx="2.00" ry="2.00" style="fill:#ffffbf" />
<rect x="13.00" y="30.00" width="11.00" height="11.00" rx="2.00" ry="2.00" style="fill:#ffffbf" />
<rect x="13.00" y="43.00" width="11.00" height="11.00" rx="2.00" ry="2.00" style="fill:#ffffbf" />
<rect x="13.00" y="56.00" width="11.00" height="11.00" rx="2.00" ry="2.00" style="fill:#e6f598" />
<rect x="13.00" y="69.00" width="11.00" height="11.00" rx="2.00" ry="2.00" style="fill:#ffffbf" />
<rect x="13.00" y="82.00" width="11.00" height="11.00" rx="2.00" ry="2.00" style="fill:#ffffbf" />
<rect x="13.00" y="95.00" width="11.00" height="11.00" rx="2.00" ry="2.00" style="fill:#ffffbf" />
<rect x="26.00" y="17.00" width="11.00" height="11.00" rx="2.00" ry="2.00" style="fill:#ffffbf" />
<rect x="26.00" y="30.00" width="11.00" height="11.00" rx="2.00" ry="2.00" style="fill:#ffffbf" />
<rect x="26.00" y="43.00" width="11.00" height="11.00" rx="2.00" ry="2.00" style="fill:#ffffbf" />
<rect x="26.00" y="56.00" width="11.00" height="11.00" rx="2.00" ry="2.00" style="fill:#ffffbf" />
<rect x="26.00" y="69.00" width="11.00" height="11.00" rx="2.00" ry="2.00" style="fill:#ffffbf" />
<rect x="26.00" y="82.00" width="11.00" height="11.00" rx="2.00" ry="2.00" style="fill:#ffffbf" />
<rect x="26.00" y="95.00" width="11.00" height="11.00" rx="2.00" ry="2.00" style="fill:#ffffbf" />
<rect x="39.00" y="17.00" width="11.00" height="11.00" rx="2.00" ry="2.00" style="fill:#ffffbf" />
<rect x="39.00" y="30.00" width="11.00" height="11.00" rx="2.00" ry="2.00" style="fill:#ffffbf" />
<rect x="39.00" y="43.00" width="11.00" height="11.00" rx="2.00" ry="2.00" style="fill:#ffffbf" />
<rect x="39.00" y="56.00" width="11.00" height="11.00" rx="2.00" ry="2.00" style="fill:#ffffbf" />
<rect x="39.00" y="69.00" width="11.00" height="11.00" rx="2.00" ry="2.00" style="fill:#ffffbf" />
<rect x="39.00" y="82.00" width="11.00" height="11.00" rx="2.00" ry="2.00" style="fill:#ffffbf" />
<rect x="39.00" y="95.00" width="11.00" height="11.00" rx="2.00" ry="2.00" style="fill:#ffffbf" />
<rect x="52.00" y="17.00" width="11.00" height="11.00" rx="2.00" ry="2.00" style="fill:#ffffbf" />
<rect x="52.00" y="30.00" width="11.00" height="11.00" rx="2.00" ry="2.00" style="fill:#ffffbf" />
<rect x="52.00" y="43.00" width="11.00" height="11.00" rx="2.00" ry="2.00" style="fill:#e6f598" />
<rect x="52.00" y="56.00" width="11.00" height="11.00" rx="2.00" ry="2.00" style="fill:#e6f598" />
<rect x="52.00" y="69.00" width="11.00" height="11.00" rx="2.00" ry="2.00" style="fill:#e6f598" />
<rect x="52.00" y="82.00" width="11.00" height="11.00" rx="2.00" ry="2.00" style="fill:#e6f598" />
<rect x="52.00" y="95.00" width="11.00" height="11.00" rx="2.00" ry="2.00" style="fill:#e6f598" />
<rect x="65.00" y="17.00" width="11.00" height="11.00" rx="2.00" ry="2.00" style="fill:#e6f598" />
<rect x="65.00" y="30.00" width="11.00" height="11.00" rx="2.00" ry="2.00" style="fill:#e6f598" />
<rect x="65.00" y="43.00" width="11.00" height="11.00" rx="2.00" ry="2.00" style="fill:#ffffbf" />
<rect x="65.00" y="56.00" width="11.00" height="11.00" rx="2.00" ry="2.00" style="fill:#ffffbf" />
<rect x="65.00" y="69.00" width="11.00" height="11.00" rx="2.00" ry="2.00" style="fill:#ffffbf" />
<rect x="65.00" y="82.00" width="11.00" height="11.00" rx="2.00" ry="2.00" style="fill:#ffffbf" />
<rect x="65.00" y="95.00" width="11.00" height="11.00" rx="2.00" ry="2.00" style="fill:#ffffbf" />
<text x="78.00" y="5.50" style="font-size: 10px;alignment-baseline: central; fill: #aaa;" >Feb</text>
<rect x="78.00" y="17.00" width="11.00" height="11.00" rx="2.00" ry="2.00" style="fill:#ffffbf" />
<rect x="78.00" y="30.00" width="11.00" height="11.00" rx="2.00" ry="2.00" style="fill:#ffffbf" />
<rect x="78.00" y="43.00" width="11.00" height="11.00" rx="2.00" ry="2.00" style="fill:#ffffbf" />
<rect x="78.00" y="56.00" width="11.00" height="11.00" rx="2.00" ry="2.00" style="fill:#ffffbf" />
<rect x="78.00" y="69.00" width="11.00" height="11.00" rx="2.00" ry="2.00" style="fill:#ffffbf" />
<rect x="78.00" y="82.00" width="11.00" height="11.00" rx="2.00" ry="2.00" style="fill:#ffffbf" />
<rect x="78.00" y="95.00" width="11.00" height="11.00" rx="2.00" ry="2.00" style="fill:#ffffbf" />
<rect x="91.00" y="17.00" width="11.00" height="11.00" rx="2.00" ry="2.00" style="fill:#ffffbf" />
<rect x="91.00" y="30.00" width="11.00" height="11.00" rx="2.00" ry="2.00" style="fill:#ffffbf" />
<rect x="91.00" y="43.00" width="11.00" height="11.00" rx="2.00" ry="2.00" style="fill:#e6f598" />
<rect x="91.00" y="56.00" width="11.00" height="11.00" rx="2.00" ry="2.00" style="fill:#ffffbf" />
<rect x="91.00" y="69.00" width="11.00" height="11.00" rx="2.00" ry="2.00" style="fill:#ffffbf" />
<rect x="91.00" y="82.00" width="11.00" height="11.00" rx="2.00" ry="2.00" style="fill:#ffffbf" />
<rect x="91.00" y="95.00" width="11.00" height="11.00" rx="2.00" ry="2.00" style="fill:#e6f598" />
<rect x="104.00" y="17.00" width="11.00" height="11.00" rx="2.00" ry="2.00" style="fill:#ffffbf" />
<rect x="104.00" y="30.00" width="11.00" height="11.00" rx="2.00" ry="2.00" style="fill:#e6f598" />
<rect x="104.00" y="43.00" width="11.00" height="11.00" rx="2.00" ry="2.00" style="fill:#e6f598" />
<rect x="104.00" y="56.00" width="11.00" height="11.00" rx="2.00" ry="2.00" style="fill:#e6f598" />
<rect x="104.00" y="69.00" width="11.00" height="11.00" rx="2.00" ry="2.00" style="fill:#ffffbf" />
<rect x="104.00" y="82.00" width="11.00" height="11.00" rx="2.00" ry="2.00" style="fill:#ffffbf" />
<rect x="104.00" y="95.00" width="11.00" height="11.00" rx="2.00" ry="2.00" style="fill:#e6f598" />
<rect x="117.00" y="17.00" width="11.00" height="11.00" rx="2.00" ry="2.00" style="fill:#ffffbf" />
<rect x="117.00" y="30.00" width="11.00" height="11.00" rx="2.00" ry="2.00" style="fill:#e6f598" />
<rect x="117.00" y="43.00" width="11.00" height="11.00" rx="2.00" ry="2.00" style="fill:#e6f598" />
<rect x="117.00" y="56.00" width="11.00" height="11.00" rx="2.00" ry="2.00" style="fill:#ffffbf" />
<rect x="117.00" y="69.00" width="11.00" height="11.00" rx="2.00" ry="2.00" style="fill:#e6f598" />
<rect x="117.00" y="82.00" width="11.00" height="11.00" rx="2.00" ry="2.00" style="fill:#ffffbf" />
<rect x="117.00" y="95.00" width="11.00" height="11.00" rx="2.00" ry="2.00" style="fill:#ffffbf" />
<text x="130.00" y="5.50" style="font-size: 10px;alignment-baseline: central; fill: #aaa;" >Mar</text>
<rect x="130.00" y="17.00" width="11.00" height="11.00" rx="2.00" ry="2.00" style="fill:#ffffbf" />
<rect x="130.00" y="30.00" width="11.00" height="11.00" rx="2.00" ry="2.00" style="fill:#ffffbf" />
<rect x="130.00" y="43.00" width="11.00" height="11.00" rx="2.00" ry="2.00" style="fill:#ffffbf" />
<rect x="130.00" y="56.00" width="11.00" height="11.00" rx="2.00" ry="2.00" style="fill:#ffffbf" />
<rect x="130.00" y="69.00" width="11.00" height="11.00" rx="2.00" ry="2.00" style="fill:#ffffbf" />
<rect x="130.00" y="82.00" width="11.00" height="11.00" rx="2.00" ry="2.00" style="fill:#ffffbf" />
<rect x="130.00" y="95.00" width="11.00" height="11.00" rx="2.00" ry="2.00" style="fill:#ffffbf" />
<rect x="143.00" y="17.00" width="11.00" height="11.00" rx="2.00" ry="2.00" style="fill:#ffffbf" />
<rect x="143.00" y="30.00" width="11.00" height="11.00" rx="2.00" ry="2.00" style="fill:#ffffbf" />
<rect x="143.00" y="43.00" width="11.00" height="11.00" rx="2.00" ry="2.00" style="fill:#e6f598" />
<rect x="143.00" y="56.00" width="11.00" height="11.00" rx="2.00" ry="2.00" style="fill:#ffffbf" />
<rect x="143.00" y="69.00" width="11.00" height="11.00" rx="2.00" ry="2.00" style="fill:#ffffbf" />
<rect x="143.00" y="82.00" width="11.00" height="11.00" rx="2.00" ry="2.00" style="fill:#ffffbf" />
<rect x="143.00" y="95.00" width="11.00" height="11.00" rx="2.00" ry="2.00" style="fill:#ffffbf" />
<rect x="156.00" y="17.00" width="11.00" height="11.00" rx="2.00" ry="2.00" style="fill:#ffffbf" />
<rect x="156.00" y="30.00" width="11.00" height="11.00" rx="2.00" ry="2.00" style="fill:#e6f598" />
<rect x="156.00" y="43.00" width="11.00" height="11.00" rx="2.00" ry="2.00" style="fill:#ffffbf" />
<rect x="156.00" y="56.00" width="11.00" height="11.00" rx="2.00" ry="2.00" style="fill:#e6f598" />
<rect x="156.00" y="69.00" width="11.00" height="11.00" rx="2.00" ry="2.00" style="fill:#e6f598" />
<rect x="156.00" y="82.00" width="11.00" height="11.00" rx="2.00" ry="2.00" style="fill:#ffffbf" />
<rect x="156.00" y="95.00" width="11.00" height="11.00" rx="2.00" ry="2.00" style="fill:#ffffbf" />
<rect x="169.00" y="17.00" width="11.00" height="11.00" rx="2.00" ry="2.00" style="fill:#ffffbf" />
<rect x="169.00" y="30.00" width="11.00" height="11.00" rx="2.00" ry="2.00" style="fill:#e6f598" />
<rect x="169.00" y="43.00" width="11.00" height="11.00" rx="2.00" ry="2.00" style="fill:#ffffbf" />
<rect x="169.00" y="56.00" width="11.00" height="11.00" rx="2.00" ry="2.00" style="fill:#ffffbf" />
<rect x="169.00" y="69.00" width="11.00" height="11.00" rx="2.00" ry="2.00" style="fill:#ffffbf" />
<rect x="169.00" y="82.00" width="11.00" height="11.00" rx="2.00" ry="2.00" style="fill:#e6f598" />
<rect x="169.00" y="95.00" width="11.00" height="11.00" rx="2.00" ry="2.00" style="fill:#e6f598" />
<text x="182.00" y="5.50" style="font-size: 10px;alignment-baseline: central; fill: #aaa;" >Apr</text>
<rect x="182.00" y="17.00" width="11.00" height="11.00" rx="2.00" ry="2.00" style="fill:#ffffbf" />
<rect x="182.00" y="30.00" width="11.00" height="11.00" rx="2.00" ry="2.00" style="fill:#ffffbf" />
<rect x="182.00" y="43.00" width="11.00" height="11.00" rx="2.00" ry="2.00" style="fill:#ffffbf" />
<rect x="182.00" y="56.00" width="11.00" height="11.00" rx="2.00" ry="2.00" style="fill:#ffffbf" />
<rect x="182.00" y="69.00" width="11.00" height="11.00" rx="2.00" ry="2.00" style="fill:#ffffbf" />
<rect x="182.00" y="82.00" width="11.00" height="11.00" rx="2.00" ry="2.00" style="fill:#ffffbf" />
<rect x="182.00" y="95.00" width="11.00" height="11.00" rx="2.00" ry="2.00" style="fill:#ffffbf" />
<rect x="195.00" y="17.00" width="11.00" height="11.00" rx="2.00" ry="2.00" style="fill:#e6f598" />
<rect x="195.00" y="30.00" width="11.00" height="11.00" rx="2.00" ry="2.00" style="fill:#e6f598" />
<rect x="195.00" y="43.00" width="11.00" height="11.00" rx="2.00" ry="2.00" style="fill:#e6f598" />
<rect x="195.00" y="56.00" width="11.00" height="11.00" rx="2.00" ry="2.00" style="fill:#ffffbf" />
<rect x="195.00" y="69.00" width="11.00" height="11.00" rx="2.00" ry="2.00" style="fill:#ffffbf" />
<rect x="195.00" y="82.00" width="11.00" height="11.00" rx="2.00" ry="2.00" style="fill:#e6f598" />
<rect x="195.00" y="95.00" width="11.00" height="11.00" rx="2.00" ry="2.00" style="fill:#ffffbf" />
<rect x="208.00" y="17.00" width="11.00" height="11.00" rx="2.00" ry="2.00" style="fill:#ffffbf" />
<rect x="208.00" y="30.00" width="11.00" height="11.00" rx="2.00" ry="2.00" style="fill:#ffffbf" />
<rect x="208.00" y="43.00" width="11.00" height="11.00" rx="2.00" ry="2.00" style="fill:#ffffbf" />
<rect x="208.00" y="56.00" width="11.00" height="11.00" rx="2.00" ry="2.00" style="fill:#ffffbf" />
<rect x="208.00" y="69.00" width="11.00" height="11.00" rx="2.00" ry="2.00" style="fill:#ffffbf" />
<rect x="208.00" y="82.00" width="11.00" height="11.00" rx="2.00" ry="2.00" style="fill:#e6f598" />
<rect x="208.00" y="95.00" width="11.00" height="11.00" rx="2.00" ry="2.00" style="fill:#ffffbf" />
<rect x="221.00" y="17.00" width="11.00" height="11.00" rx="2.00" ry="2.00" style="fill:#e6f598" />
<rect x="221.00" y="30.00" width="11.00" height="11.00" rx="2.00" ry="2.00" style="fill:#e6f598" />
<rect x="221.00" y="43.00" width="11.00" height="11.00" rx="2.00" ry="2.00" style="fill:#e6f598" />
<rect x="221.00" y="56.00" width="11.00" height="11.00" rx="2.00" ry="2.00" style="fill:#e6f598" />
<rect x="221.00" y="69.00" width="11.00" height="11.00" rx="2.00" ry="2.00" style="fill:#e6f598" />
<rect x="221.00" y="82.00" width="11.00" height="11.00" rx="2.00" ry="2.00" style="fill:#ffffbf" />
<rect x="221.00" y="95.00" width="11.00" height="11.00" rx="2.00" ry="2.00" style="fill:#ffffbf" />
<text x="234.00" y="5.50" style="font-size: 10px;alignment-baseline: central; fill: #aaa;" >May</text>
<rect x="234.00" y="17.00" width="11.00" height="11.00" rx="2.00" ry="2.00" style="fill:#ffffbf" />
<rect x="234.00" y="30.00" width="11.00" height="11.00" rx="2.00" ry="2.00" style="fill:#ffffbf" />
<rect x="234.00" y="43.00" width="11.00" height="11.00" rx="2.00" ry="2.00" style="fill:#ffffbf" />
<rect x="234.00" y="56.00" width="11.00" height="11.00" rx="2.00" ry="2.00" style="fill:#ffffbf" />
<rect x="234.00" y="69.00" width="11.00" height="11.00" rx="2.00" ry="2.00" style="fill:#e6f598" />
<rect x="234.00" y="82.00" width="11.00" height="11.00" rx="2.00" ry="2.00" style="fill:#ffffbf" />
<rect x="234.00" y="95.00" width="11.00" height="11.00" rx="2.00" ry="2.00" style="fill:#ffffbf" />
<rect x="247.00" y="17.00" width="11.00" height="11.00" rx="2.00" ry="2.00" style="fill:#e6f598" />
<rect x="247.00" y="30.00" width="11.00" height="11.00" rx="2.00" ry="2.00" style="fill:#e6f598" />
<rect x="247.00" y="43.00" width="11.00" height="11.00" rx="2.00" ry="2.00" style="fill:#e6f598" />
<rect x="247.00" y="56.00" width="11.00" height="11.00" rx="2.00" ry="2.00" style="fill:#e6f598" />
<rect x="247.00" y="69.00" width="11.00" height="11.00" rx="2.00" ry="2.00" style="fill:#ffffbf" />
<rect x="247.00" y="82.00" width="11.00" height="11.00" rx="2.00" ry="2.00" style="fill:#ffffbf" />
<rect x="247.00" y="95.00" width="11.00" height="11.00" rx="2.00" ry="2.00" style="fill:#ffffbf" />
<rect x="260.00" y="17.00" width="11.00" height="11.00" rx="2.00" ry="2.00" style="fill:#ffffbf" />
<rect x="260.00" y="30.00" width="11.00" height="11.00" rx="2.00" ry="2.00" style="fill:#ffffbf" />
<rect x="260.00" y="43.00" width="11.00" height="11.00" rx="2.00" ry="2.00" style="fill:#ffffbf" />
<rect x="260.00" y="56.00" width="11.00" height="11.00" rx="2.00" ry="2.00" style="fill:#ffffbf" />
<rect x="260.00" y="69.00" width="11.00" height="11.00" rx="2.00" ry="2.00" style="fill:#ffffbf" />
<rect x="260.00" y="82.00" width="11.00" height="11.00" rx="2.00" ry="2.00" style="fill:#ffffbf" />
<rect x="260.00" y="95.00" width="11.00" height="11.00" rx="2.00" ry="2.00" style="fill:#ffffbf" />
<rect x="273.00" y="17.00" width="11.00" height="11.00" rx="2.00" ry="2.00" style="fill:#e6f598" />
<rect x="273.00" y="30.00" width="11.00" height="11.00" rx="2.00" ry="2.00" style="fill:#ffffbf" />
<rect x="273.00" y="43.00" width="11.00" height="11.00" rx="2.00" ry="2.00" style="fill:#ffffbf" />
<rect x="273.00" y="56.00" width="11.00" height="11.00" rx="2.00" ry="2.00" style="fill:#ffffbf" />
<rect x="273.00" y="69.00" width="11.00" height="11.00" rx="2.00" ry="2.00" style="fill:#ffffbf" />
<rect x="273.00" y="82.00" width="11.00" height="11.00" rx="2.00" ry="2.00" style="fill:#ffffbf" />
<rect x="273.00" y="95.00" width="11.00" height="11.00" rx="2.00" ry="2.00" style="fill:#ffffbf" />
<rect x="286.00" y="17.00" width="11.00" height="11.00" rx="2.00" ry="2.00" style="fill:#ffffbf" />
<rect x="286.00" y="30.00" width="11.00" height="11.00" rx="2.00" ry="2.00" style="fill:#ffffbf" />
<rect x="286.00" y="43.00" width="11.00" height="11.00" rx="2.00" ry="2.00" style="fill:#e6f598" />
<rect x="286.00" y="56.00" width="11.00" height="11.00" rx="2.00" ry="2.00" style="fill:#e6f598" />
<rect x="286.00" y="69.00" width="11.00" height="11.00" rx="2.00" ry="2.00" style="fill:#ffffbf" />
<rect x="286.00" y="82.00" width="11.00" height="11.00" rx="2.00" ry="2.00" style="fill:#e6f598" />
<rect x="286.00" y="95.00" width="11.00" height="11.00" rx="2.00" ry="2.00" style="fill:#e6f598" />
<text x="299.00" y="5.50" style="font-size: 10px;alignment-baseline: central; fill: #aaa;" >Jun</text>
<rect x="299.00" y="17.00" width="11.00" height="11.00" rx="2.00" ry="2.00" style="fill:#e6f598" />
<rect x="299.00" y="30.00" width="11.00" height="11.00" rx="2.00" ry="2.00" style="fill:#e6f598" />
<rect x="299.00" y="43.00" width="11.00" height="11.00" rx="2.00" ry="2.00" style="fill:#ffffbf" />
<rect x="299.00" y="56.00" width="11.00" height="11.00" rx="2.00" ry="2.00" style="fill:#ffffbf" />
<rect x="299.00" y="69.00" width="11.00" height="11.00" rx="2.00" ry="2.00" style="fill:#ffffbf" />
<rect x="299.00" y="82.00" width="11.00" height="11.00" rx="2.00" ry="2.00" style="fill:#ffffbf" />
<rect x="299.00" y="95.00" width="11.00" height="11.00" rx="2.00" ry="2.00" style="fill:#ffffbf" />
<rect x="312.00" y="17.00" width="11.00" height="11.00" rx="2.00" ry="2.00" style="fill:#ffffbf" />
<rect x="312.00" y="30.00" width="11.00" height="11.00" rx="2.00" ry="2.00" style="fill:#ffffbf" />
<rect x="312.00" y="43.00" width="11.00" height="11.00" rx="2.00" ry="2.00" style="fill:#ffffbf" />
<rect x="312.00" y="56.00" width="11.00" height="11.00" rx="2.00" ry="2.00" style="fill:#ffffbf" />
<rect x="312.00" y="69.00" width="11.00" height="11.00" rx="2.00" ry="2.00" style="fill:#e6f598" />
<rect x="312.00" y="82.00" width="11.00" height="11.00" rx="2.00" ry="2.00" style="fill:#e6f598" />
<rect x="312.00" y="95.00" width="11.00" height="11.00" rx="2.00" ry="2.00" style="fill:#e6f598" />
<rect x="325.00" y="17.00" width="11.00" height="11.00" rx="2.00" ry="2.00" style="fill:#e6f598" />
<rect x="325.00" y="30.00" width="11.00" height="11.00" rx="2.00" ry="2.00" style="fill:#ffffbf" />
<rect x="325.00" y="43.00" width="11.00" height="11.00" rx="2.00" ry="2.00" style="fill:#ffffbf" />
<rect x="325.00" y="56.00" width="11.00" height="11.00" rx="2.00" ry="2.00" style="fill:#e6f598" />
<rect x="325.00" y="69.00" width="11.00" height="11.00" rx="2.00" ry="2.00" style="fill:#ffffbf" />
<rect x="325.00" y="82.00" width="11.00" height="11.00" rx="2.00" ry="2.00" style="fill:#ffffbf" />
<rect x="325.00" y="95.00" width="11.00" height="11.00" rx="2.00" ry="2.00" style="fill:#ffffbf" />
<rect x="338.00" y="17.00" width="11.00" height="11.00" rx="2.00" ry="2.00" style="fill:#ffffbf" />
<rect x="338.00" y="30.00" width="11.00" height="11.00" rx="2.00" ry="2.00" style="fill:#ffffbf" />
<rect x="338.00" y="43.00" width="11.00" height="11.00" rx="2.00" ry="2.00" style="fill:#ffffbf" />
<rect x="338.00" y="56.00" width="11.00" height="11.00" rx="2.00" ry="2.00" style="fill:#ffffbf" />
<rect x="338.00" y="69.00" width="11.00" height="11.00" rx="2.00" ry="2.00" style="fill:#ffffbf" />
<rect x="338.00" y="82.00" width="11.00" height="11.00" rx="2.00" ry="2.00" style="fill:#ffffbf" />
<rect x="338.00" y="95.00" width="11.00" height="11.00" rx="2.00" ry="2.00" style="fill:#ffffbf" />
<text x="351.00" y="5.50" style="font-size: 10px;alignment-baseline: central; fill: #aaa;" >Jul</text>
<rect x="351.00" y="17.00" width="11.00" height="11.00" rx="2.00" ry="2.00" style="fill:#e6f598" />
<rect x="351.00" y="30.00" width="11.00" height="11.00" rx="2.00" ry="2.00" style="fill:#ffffbf" />
<rect x="351.00" y="43.00" width="11.00" height="11.00" rx="2.00" ry="2.00" style="fill:#ffffbf" />
<rect x="351.00" y="56.00" width="11.00" height="11.00" rx="2.00" ry="2.00" style="fill:#ffffbf" />
<rect x="351.00" y="69.00" width="11.00" height="11.00" rx="2.00" ry="2.00" style="fill:#ffffbf" />
<rect x="351.00" y="82.00" width="11.00" height="11.00" rx="2.00" ry="2.00" style="fill:#ffffbf" />
<rect x="351.00" y="95.00" width="11.00" height="11.00" rx="2.00" ry="2.00" style="fill:#ffffbf" />
<rect x="364.00" y="17.00" width="11.00" height="11.00" rx="2.00" ry="2.00" style="fill:#e6f598" />
<rect x="364.00" y="30.00" width="11.00" height="11.00" rx="2.00" ry="2.00" style="fill:#e6f598" />
<rect x="364.00" y="43.00" width="11.00" height="11.00" rx="2.00" ry="2.00" style="fill:#ffffbf" />
<rect x="364.00" y="56.00" width="11.00" height="11.00" rx="2.00" ry="2.00" style="fill:#ffffbf" />
<rect x="364.00" y="69.00" width="11.00" height="11.00" rx="2.00" ry="2.00" style="fill:#ffffbf" />
<rect x="364.00" y="82.00" width="11.00" height="11.00" rx="2.00" ry="2.00" style="fill:#ffffbf" />
<rect x="364.00" y="95.00" width="11.00" height="11.00" rx="2.00" ry="2.00" style="fill:#ffffbf" />
<rect x="377.00" y="17.00" width="11.00" height="11.00" rx="2.00" ry="2.00" style="fill:#ffffbf" />
<rect x="377.00" y="30.00" width="11.00" height="11.00" rx="2.00" ry="2.00" style="fill:#ffffbf" />
<rect x="377.00" y="43.00" width="11.00" height="11.00" rx="2.00" ry="2.00" style="fill:#ffffbf" />
<rect x="377.00" y="56.00" width="11.00" height="11.00" rx="2.00" ry="2.00" style="fill:#ffffbf" />
<rect x="377.00" y="69.00" width="11.00" height="11.00" rx="2.00" ry="2.00" style="fill:#ffffbf" />
<rect x="377.00" y="82.00" width="11.00" height="11.00" rx="2.00" ry="2.00" style="fill:#ffffbf" />
<rect x="377.00" y="95.00" width="11.00" height="11.00" rx="2.00" ry="2.00" style="fill:#ffffbf" />
<rect x="390.00" y="17.00" width="11.00" height="11.00" rx="2.00" ry="2.00" style="fill:#ffffbf" />
<rect x="390.00" y="30.00" width="11.00" height="11.00" rx="2.00" ry="2.00" style="fill:#ffffbf" />
<rect x="390.00" y="43.00" width="11.00" height="11.00" rx="2.00" ry="2.00" style="fill:#ffffbf" />
<rect x="390.00" y="56.00" width="11.00" height="11.00" rx="2.00" ry="2.00" style="fill:#ffffbf" />
<rect x="390.00" y="69.00" width="11.00" height="11.00" rx="2.00" ry="2.00" style="fill:#ffffbf" />
<rect x="390.00" y="82.00" width="11.00" height="11.00" rx="2.00" ry="2.00" style="fill:#ffffbf" />
<rect x="390.00" y="95.00" width="11.00" height="11.00" rx="2.00" ry="2.00" style="fill:#ffffbf" />
<text x="403.00" y="5.50" style="font-size: 10px;alignment-baseline: central; fill: #aaa;" >Aug</text>
<rect x="403.00" y="17.00" width="11.00" height="11.00" rx="2.00" ry="2.00" style="fill:#e6f598" />
<rect x="403.00" y="30.00" width="11.00" height="11.00" rx="2.00" ry="2.00" style="fill:#e6f598" />
<rect x="403.00" y="43.00" width="11.00" height="11.00" rx="2.00" ry="2.00" style="fill:#e6f598" />
<rect x="403.00" y="56.00" width="11.00" height="11.00" rx="2.00" ry="2.00" style="fill:#e6f598" />
<rect x="403.00" y="69.00" width="11.00" height="11.00" rx="2.00" ry="2.00" style="fill:#ffffbf" />
<rect x="403.00" y="82.00" width="11.00" height="11.00" rx="2.00" ry="2.00" style="fill:#ffffbf" />
<rect x="403.00" y="95.00" width="11.00" height="11.00" rx="2.00" ry="2.00" style="fill:#e6f598" />
<rect x="416.00" y="17.00" width="11.00" height="11.00" rx="2.00" ry="2.00" style="fill:#ffffbf" />
<rect x="416.00" y="30.00" width="11.00" height="11.00" rx="2.00" ry="2.00" style="fill:#ffffbf" />
<rect x="416.00" y="43.00" width="11.00" height="11.00" rx="2.00" ry="2.00" style="fill:#ffffbf" />
<rect x="416.00" y="56.00" width="11.00" height="11.00" rx="2.00" ry="2.00" style="fill:#ffffbf" />
<rect x="416.00" y="69.00" width="11.00" height="11.00" rx="2.00" ry="2.00" style="fill:#ffffbf" />
<rect x="416.00" y="82.00" width="11.00" height="11.00" rx="2.00" ry="2.00" style="fill:#e6f598" />
<rect x="416.00" y="95.00" width="11.00" height="11.00" rx="2.00" ry="2.00" style="fill:#e6f598" />
<rect x="429.00" y="17.00" width="11.00" height="11.00" rx="2.00" ry="2.00" style="fill:#ffffbf" />
<rect x="429.00" y="30.00" width="11.00" height="11.00" rx="2.00" ry="2.00" style="fill:#ffffbf" />
<rect x="429.00" y="43.00" width="11.00" height="11.00" rx="2.00" ry="2.00" style="fill:#ffffbf" />
<rect x="429.00" y="56.00" width="11.00" height="11.00" rx="2.00" ry="2.00" style="fill:#ffffbf" />
<rect x="429.00" y="69.00" width="11.00" height="11.00" rx="2.00" ry="2.00" style="fill:#ffffbf" />
<rect x="429.00" y="82.00" width="11.00" height="11.00" rx="2.00" ry="2.00" style="fill:#ffffbf" />
<rect x="429.00" y="95.00" width="11.00" height="11.00" rx="2.00" ry="2.00" style="fill:#ffffbf" />
<rect x="442.00" y="17.00" width="11.00" height="11.00" rx="2.00" ry="2.00" style="fill:#ffffbf" />
<rect x="442.00" y="30.00" width="11.00" height="11.00" rx="2.00" ry="2.00" style="fill:#ffffbf" />
<rect x="442.00" y="43.00" width="11.00" height="11.00" rx="2.00" ry="2.00" style="fill:#ffffbf" />
<rect x="442.00" y="56.00" width="11.00" height="11.00" rx="2.00" ry="2.00" style="fill:#e6f598" />
<rect x="442.00" y="69.00" width="11.00" height="11.00" rx="2.00" ry="2.00" style="fill:#ffffbf" />
<rect x="442.00" y="82.00" width="11.00" height="11.00" rx="2.00" ry="2.00" style="fill:#ffffbf" />
<rect x="442.00" y="95.00" width="11.00" height="11.00" rx="2.00" ry="2.00" style="fill:#ffffbf" />
<rect x="455.00" y="17.00" width="11.00" height="11.00" rx="2.00" ry="2.00" style="fill:#ffffbf" />
<rect x="455.00" y="30.00" width="11.00" height="11.00" rx="2.00" ry="2.00" style="fill:#ffffbf" />
<rect x="455.00" y="43.00" width="11.00" height="11.00" rx="2.00" ry="2.00" style="fill:#ffffbf" />
<rect x="455.00" y="56.00" width="11.00" height="11.00" rx="2.00" ry="2.00" style="fill:#ffffbf" />
<rect x="455.00" y="69.00" width="11.00" height="11.00" rx="2.00" ry="2.00" style="fill:#ffffbf" />
<rect x="455.00" y="82.00" width="11.00" height="11.00" rx="2.00" ry="2.00" style="fill:#ffffbf" />
<rect x="455.00" y="95.00" width="11.00" height="11.00" rx="2.00" ry="2.00" style="fill:#ffffbf" />
<text x="468.00" y="5.50" style="font-size: 10px;alignment-baseline: central; fill: #aaa;" >Sep</text>
<rect x="468.00" y="17.00" width="11.00" height="11.00" rx="2.00" ry="2.00" style="fill:#ffffbf" />
<rect x="468.00" y="30.00" width="11.00" height="11.00" rx="2.00" ry="2.00" style="fill:#ffffbf" />
<rect x="468.00" y="43.00" width="11.00" height="11.00" rx="2.00" ry="2.00" style="fill:#ffffbf" />
<rect x="468.00" y="56.00" width="11.00" height="11.00" rx="2.00" ry="2.00" style="fill:#e6f598" />
<rect x="468.00" y="69.00" width="11.00" height="11.00" rx="2.00" ry="2.00" style="fill:#e6f598" />
<rect x="468.00" y="82.00" width="11.00" height="11.00" rx="2.00" ry="2.00" style="fill:#e6f598" />
<rect x="468.00" y="95.00" width="11.00" height="11.00" rx="2.00" ry="2.00" style="fill:#ffffbf" />
<rect x="481.00" y="17.00" width="11.00" height="11.00" rx="2.00" ry="2.00" style="fill:#e6f598" />
<rect x="481.00" y="30.00" width="11.00" height="11.00" rx="2.00" ry="2.00" style="fill:#e6f598" />
<rect x="481.00" y="43.00" width="11.00" height="11.00" rx="2.00" ry="2.00" style="fill:#ffffbf" />
<rect x="481.00" y="56.00" width="11.00" height="11.00" rx="2.00" ry="2.00" style="fill:#ffffbf" />
<rect x="481.00" y="69.00" width="11.00" height="11.00" rx="2.00" ry="2.00" style="fill:#e6f598" />
<rect x="481.00" y="82.00" width="11.00" height="11.00" rx="2.00" ry="2.00" style="fill:#ffffbf" />
<rect x="481.00" y="95.00" width="11.00" height="11.00" rx="2.00" ry="2.00" style="fill:#ffffbf" />
<rect x="494.00" y="17.00" width="11.00" height="11.00" rx="2.00" ry="2.00" style="fill:#ffffbf" />
<rect x="494.00" y="30.00" width="11.00" height="11.00" rx="2.00" ry="2.00" style="fill:#ffffbf" />
<rect x="494.00" y="43.00" width="11.00" height="11.00" rx="2.00" ry="2.00" style="fill:#ffffbf" />
<rect x="494.00" y="56.00" width="11.00" height="11.00" rx="2.00" ry="2.00" style="fill:#ffffbf" />
<rect x="494.00" y="69.00" width="11.00" height="11.00" rx="2.00" ry="2.00" style="fill:#ffffbf" />
<rect x="494.00" y="82.00" width="11.00" height="11.00" rx="2.00" ry="2.00" style="fill:#ffffbf" />
<rect x="494.00" y="95.00" width="11.00" height="11.00" rx="2.00" ry="2.00" style="fill:#ffffbf" />
<rect x="507.00" y="17.00" width="11.00" height="11.00" rx="2.00" ry="2.00" style="fill:#ffffbf" />
<rect x="507.00" y="30.00" width="11.00" height="11.00" rx="2.00" ry="2.00" style="fill:#ffffbf" />
<rect x="507.00" y="43.00" width="11.00" height="11.00" rx="2.00" ry="2.00" style="fill:#e6f598" />
<rect x="507.00" y="56.00" width="11.00" height="11.00" rx="2.00" ry="2.00" style="fill:#ffffbf" />
<rect x="507.00" y="69.00" width="11.00" height="11.00" rx="2.00" ry="2.00" style="fill:#ffffbf" />
<rect x="507.00" y="82.00" width="11.00" height="11.00" rx="2.00" ry="2.00" style="fill:#ffffbf" />
<rect x="507.00" y="95.00" width="11.00" height="11.00" rx="2.00" ry="2.00" style="fill:#e6f598" />
<text x="520.00" y="5.50" style="font-size: 10px;alignment-baseline: central; fill: #aaa;" >Oct</text>
<rect x="520.00" y="17.00" width="11.00" height="11.00" rx="2.00" ry="2.00" style="fill:#ffffbf" />
<rect x="520.00" y="30.00" width="11.00" height="11.00" rx="2.00" ry="2.00" style="fill:#e6f598" />
<rect x="520.00" y="43.00" width="11.00" height="11.00" rx="2.00" ry="2.00" style="fill:#e6f598" />
<rect x="520.00" y="56.00" width="11.00" height="11.00" rx="2.00" ry="2.00" style="fill:#ffffbf" />
<rect x="520.00" y="69.00" width="11.00" height="11.00" rx="2.00" ry="2.00" style="fill:#ffffbf" />
<rect x="520.00" y="82.00" width="11.00" height="11.00" rx="2.00" ry="2.00" style="fill:#ffffbf" />
<rect x="520.00" y="95.00" width="11.00" height="11.00" rx="2.00" ry="2.00" style="fill:#ffffbf" />
<rect x="533.00" y="17.00" width="11.00" height="11.00" rx="2.00" ry="2.00" style="fill:#ffffbf" />
<rect x="533.00" y="30.00" width="11.00" height="11.00" rx="2.00" ry="2.00" style="fill:#ffffbf" />
<rect x="533.00" y="43.00" width="11.00" height="11.00" rx="2.00" ry="2.00" style="fill:#ffffbf" />
<rect x="533.00" y="56.00" width="11.00" height="11.00" rx="2.00" ry="2.00" style="fill:#ffffbf" />
<rect x="533.00" y="69.00" width="11.00" height="11.00" rx="2.00" ry="2.00" style="fill:#ffffbf" />
<rect x="533.00" y="82.00" width="11.00" height="11.00" rx="2.00" ry="2.00" style="fill:#ffffbf" />
<rect x="533.00" y="95.00" width="11.00" height="11.00" rx="2.00" ry="2.00" style="fill:#ffffbf" />
<rect x="546.00" y="17.00" width="11.00" height="11.00" rx="2.00" ry="2.00" style="fill:#ffffbf" />
<rect x="546.00" y="30.00" width="11.00" height="11.00" rx="2.00" ry="2.00" style="fill:#ffffbf" />
<rect x="546.00" y="43.00" width="11.00" height="11.00" rx="2.00" ry="2.00" style="fill:#ffffbf" />
<rect x="546.00" y="56.00" width="11.00" height="11.00" rx="2.00" ry="2.00" style="fill:#ffffbf" />
<rect x="546.00" y="69.00" width="11.00" height="11.00" rx="2.00" ry="2.00" style="fill:#ffffbf" />
<rect x="546.00" y="82.00" width="11.00" height="11.00" rx="2.00" ry="2.00" style="fill:#ffffbf" />
<rect x="546.00" y="95.00" width="11.00" height="11.00" rx="2.00" ry="2.00" style="fill:#ffffbf" />
<rect x="559.00" y="17.00" width="11.00" height="11.00" rx="2.00" ry="2.00" style="fill:#e6f598" />
<rect x="559.00" y="30.00" width="11.00" height="11.00" rx="2.00" ry="2.00" style="fill:#ffffbf" />
<rect x="559.00" y="43.00" width="11.00" height="11.00" rx="2.00" ry="2.00" style="fill:#ffffbf" />
<rect x="559.00" y="56.00" width="11.00" height="11.00" rx="2.00" ry="2.00" style="fill:#ffffbf" />
<rect x="559.00" y="69.00" width="11.00" height="11.00" rx="2.00" ry="2.00" style="fill:#ffffbf" />
<rect x="559.00" y="82.00" width="11.00" height="11.00" rx="2.00" ry="2.00" style="fill:#ffffbf" />
<rect x="559.00" y="95.00" width="11.00" height="11.00" rx="2.00" ry="2.00" style="fill:#ffffbf" />
<rect x="572.00" y="17.00" width="11.00" height="11.00" rx="2.00" ry="2.00" style="fill:#ffffbf" />
<rect x="572.00" y="30.00" width="11.00" height="11.00" rx="2.00" ry="2.00" style="fill:#ffffbf" />
<rect x="572.00" y="43.00" width="11.00" height="11.00" rx="2.00" ry="2.00" style="fill:#ffffbf" />
<rect x="572.00" y="56.00" width="11.00" height="11.00" rx="2.00" ry="2.00" style="fill:#ffffbf" />
<rect x="572.00" y="69.00" width="11.00" height="11.00" rx="2.00" ry="2.00" style="fill:#ffffbf" />
<rect x="572.00" y="82.00" width="11.00" height="11.00" rx="2.00" ry="2.00" style="fill:#ffffbf" />
<rect x="572.00" y="95.00" width="11.00" height="11.00" rx="2.00" ry="2.00" style="fill:#ffffbf" />
<text x="585.00" y="5.50" style="font-size: 10px;alignment-baseline: central; fill: #aaa;" >Nov</text>
<rect x="585.00" y="17.00" width="11.00" height="11.00" rx="2.00" ry="2.00" style="fill:#ffffbf" />
<rect x="585.00" y="30.00" width="11.00" height="11.00" rx="2.00" ry="2.00" style="fill:#ffffbf" />
<rect x="585.00" y="43.00" width="11.00" height="11.00" rx="2.00" ry="2.00" style="fill:#ffffbf" />
<rect x="585.00" y="56.00" width="11.00" height="11.00" rx="2.00" ry="2.00" style="fill:#ffffbf" />
<rect x="585.00" y="69.00" width="11.00" height="11.00" rx="2.00" ry="2.00" style="fill:#ffffbf" />
<rect x="585.00" y="82.00" width="11.00" height="11.00" rx="2.00" ry="2.00" style="fill:#ffffbf" />
<rect x="585.00" y="95.00" width="11.00" height="11.00" rx="2.00" ry="2.00" style="fill:#ffffbf" />
<rect x="598.00" y="17.00" width="11.00" height="11.00" rx="2.00" ry="2.00" style="fill:#ffffbf" />
<rect x="598.00" y="30.00" width="11.00" height="11.00" rx="2.00" ry="2.00" style="fill:#ffffbf" />
<rect x="598.00" y="43.00" width="11.00" height="11.00" rx="2.00" ry="2.00" style="fill:#ffffbf" />
<rect x="598.00" y="56.00" width="11.00" height="11.00" rx="2.00" ry="2.00" style="fill:#e6f598" />
<rect x="598.00" y="69.00" width="11.00" height="11.00" rx="2.00" ry="2.00" style="fill:#e6f598" />
<rect x="598.00" y="82.00" width="11.00" height="11.00" rx="2.00" ry="2.00" style="fill:#ffffbf" />
<rect x="598.00" y="95.00" width="11.00" height="11.00" rx="2.00" ry="2.00" style="fill:#ffffbf" />
<rect x="611.00" y="17.00" width="11.00" height="11.00" rx="2.00" ry="2.00" style="fill:#e6f598" />
<rect x="611.00" y="30.00" width="11.00" height="11.00" rx="2.00" ry="2.00" style="fill:#ffffbf" />
<rect x="611.00" y="43.00" width="11.00" height="11.00" rx="2.00" ry="2.00" style="fill:#ffffbf" />
<rect x="611.00" y="56.00" width="11.00" height="11.00" rx="2.00" ry="2.00" style="fill:#ffffbf" />
<rect x="611.00" y="69.00" width="11.00" height="11.00" rx="2.00" ry="2.00" style="fill:#ffffbf" />
<rect x="611.00" y="82.00" width="11.00" height="11.00" rx="2.00" ry="2.00" style="fill:#ffffbf" />
<rect x="611.00" y="95.00" width="11.00" height="11.00" rx="2.00" ry="2.00" style="fill:#ffffbf" />
<rect x="624.00" y="17.00" width="11.00" height="11.00" rx="2.00" ry="2.00" style="fill:#ffffbf" />
<rect x="624.00" y="30.00" width="11.00" height="11.00" rx="2.00" ry="2.00" style="fill:#e6f598" />
<rect x="624.00" y="43.00" width="11.00" height="11.00" rx="2.00" ry="2.00" style="fill:#e6f598" />
<rect x="624.00" y="56.00" width="11.00" height="11.00" rx="2.00" ry="2.00" style="fill:#ffffbf" />
<rect x="624.00" y="69.00" width="11.00" height="11.00" rx="2.00" ry="2.00" style="fill:#e6f598" />
<rect x="624.00" y="82.00" width="11.00" height="11.00" rx="2.00" ry="2.00" style="fill:#e6f598" />
<rect x="624.00" y="95.00" width="11.00" height="11.00" rx="2.00" ry="2.00" style="fill:#e6f598" />
<text x="637.00" y="5.50" style="font-size: 10px;alignment-baseline: central; fill: #aaa;" >Dec</text>
<rect x="637.00" y="17.00" width="11.00" height="11.00" rx="2.00" ry="2.00" style="fill:#ffffbf" />
<rect x="637.00" y="30.00" width="11.00" height="11.00" rx="2.00" ry="2.00" style="fill:#ffffbf" />
<rect x="637.00" y="43.00" width="11.00" height="11.00" rx="2.00" ry="2.00" style="fill:#ffffbf" />
<rect x="637.00" y="56.00" width="11.00" height="11.00" rx="2.00" ry="2.00" style="fill:#ffffbf" />
<rect x="637.00" y="69.00" width="11.00" height="11.00" rx="2.00" ry="2.00" style="fill:#ffffbf" />
<rect x="637.00" y="82.00" width="11.00" height="11.00" rx="2.00" ry="2.00" style="fill:#ffffbf" />
<rect x="637.00" y="95.00" width="11.00" height="11.00" rx="2.00" ry="2.00" style="fill:#e6f598" />
<rect x="650.00" y="17.00" width="11.00" height="11.00" rx="2.00" ry="2.00" style="fill:#e6f598" />
<rect x="650.00" y="30.00" width="11.00" height="11.00" rx="2.00" ry="2.00" style="fill:#ffffbf" />
<rect x="650.00" y="43.00" width="11.00" height="11.00" rx="2.00" ry="2.00" style="fill:#ffffbf" />
<rect x="650.00" y="56.00" width="11.00" height="11.00" rx="2.00" ry="2.00" style="fill:#ffffbf" />
<rect x="650.00" y="69.00" width="11.00" height="11.00" rx="2.00" ry="2.00" style="fill:#ffffbf" />
<rect x="650.00" y="82.00" width="11.00" height="11.00" rx="2.00" ry="2.00" style="fill:#ffffbf" />
<rect x="650.00" y="95.00" width="11.00" height="11.00" rx="2.00" ry="2.00" style="fill:#e6f598" />
<rect x="663.00" y="17.00" width="11.00" height="11.00" rx="2.00" ry="2.00" style="fill:#e6f598" />
<rect x="663.00" y="30.00" width="11.00" height="11.00" rx="2.00" ry="2.00" style="fill:#ffffbf" />
<rect x="663.00" y="43.00" width="11.00" height="11.00" rx="2.00" ry="2.00" style="fill:#ffffbf" />
<rect x="663.00" y="56.00" width="11.00" height="11.00" rx="2.00" ry="2.00" style="fill:#ffffbf" />
<rect x="663.00" y="69.00" width="11.00" height="11.00" rx="2.00" ry="2.00" style="fill:#ffffbf" />
<rect x="663.00" y="82.00" width="11.00" height="11.00" rx="2.00" ry="2.00" style="fill:#ffffbf" />
<rect x="663.00" y="95.00" width="11.00" height="11.00" rx="2.00" ry="2.00" style="fill:#ffffbf" />
<rect x="676.00" y="17.00" width="11.00" height="11.00" rx="2.00" ry="2.00" style="fill:#ffffbf" />
<rect x="676.00" y="30.00" width="11.00" height="11.00" rx="2.00" ry="2.00" style="fill:#e6f598" />
<rect x="676.00" y="43.00" width="11.00" height="11.00" rx="2.00" ry="2.00" style="fill:#e6f598" />
<rect x="676.00" y="56.00" width="11.00" height="11.00" rx="2.00" ry="2.00" style="fill:#e6f598" />
<rect x="676.00" y="69.00" width="11.00" height="11.00" rx="2.00" ry="2.00" style="fill:#e6f598" />
<rect x="676.00" y="82.00" width="11.00" height="11.00" rx="2.00" ry="2.00" style="fill:#ffffbf" />
<text x="0.00" y="22.50" style="font-size: 9px; fill:#aaa" ></text>
<text x="0.00" y="35.50" style="font-size: 9px; fill:#aaa" ></text>
<text x="0.00" y="48.50" style="font-size: 9px; fill:#aaa" ></text>
<text x="0.00" y="61.50" style="font-size: 9px; fill:#aaa" ></text>
<text x="0.00" y="74.50" style="font-size: 9px; fill:#aaa" ></text>
<text x="0.00" y="87.50" style="font-size: 9px; fill:#aaa" ></text>
<text x="0.00" y="100.50" style="font-size: 9px; fill:#aaa" ></text>
</svg>

